<mxfile host="app.diagrams.net" agent="Mozilla/5.0 (Windows NT 10.0; Win64; x64) AppleWebKit/537.36 (KHTML, like Gecko) Chrome/127.0.0.0 Safari/537.36" version="24.7.8">
  <diagram name="Page-1" id="OWI4yCP7qAClX7mEh2jV">
    <mxGraphModel dx="1600" dy="836" grid="1" gridSize="10" guides="1" tooltips="1" connect="1" arrows="1" fold="1" page="1" pageScale="1" pageWidth="827" pageHeight="1169" math="0" shadow="0">
      <root>
        <mxCell id="0" />
        <mxCell id="1" parent="0" />
        <mxCell id="RMmXxPSA-yJP6LR7eLPe-12" style="edgeStyle=orthogonalEdgeStyle;rounded=0;orthogonalLoop=1;jettySize=auto;html=1;exitX=1;exitY=0.5;exitDx=0;exitDy=0;entryX=0;entryY=0.5;entryDx=0;entryDy=0;" edge="1" parent="1" target="RMmXxPSA-yJP6LR7eLPe-2">
          <mxGeometry relative="1" as="geometry">
            <mxPoint x="160" y="180" as="sourcePoint" />
            <mxPoint x="180" y="110" as="targetPoint" />
            <Array as="points">
              <mxPoint x="160" y="181" />
              <mxPoint x="180" y="181" />
              <mxPoint x="180" y="110" />
            </Array>
          </mxGeometry>
        </mxCell>
        <mxCell id="RMmXxPSA-yJP6LR7eLPe-1" value="Client" style="rounded=0;whiteSpace=wrap;html=1;" vertex="1" parent="1">
          <mxGeometry x="50" y="150" width="120" height="60" as="geometry" />
        </mxCell>
        <mxCell id="RMmXxPSA-yJP6LR7eLPe-13" style="edgeStyle=orthogonalEdgeStyle;rounded=0;orthogonalLoop=1;jettySize=auto;html=1;exitX=1;exitY=0.5;exitDx=0;exitDy=0;entryX=0;entryY=0.5;entryDx=0;entryDy=0;" edge="1" parent="1" source="RMmXxPSA-yJP6LR7eLPe-2" target="RMmXxPSA-yJP6LR7eLPe-3">
          <mxGeometry relative="1" as="geometry">
            <Array as="points">
              <mxPoint x="320" y="110" />
              <mxPoint x="320" y="180" />
            </Array>
          </mxGeometry>
        </mxCell>
        <mxCell id="RMmXxPSA-yJP6LR7eLPe-2" value="Check JWT Middleware&amp;nbsp;" style="rounded=0;whiteSpace=wrap;html=1;" vertex="1" parent="1">
          <mxGeometry x="190" y="80" width="120" height="60" as="geometry" />
        </mxCell>
        <mxCell id="RMmXxPSA-yJP6LR7eLPe-14" style="edgeStyle=orthogonalEdgeStyle;rounded=0;orthogonalLoop=1;jettySize=auto;html=1;exitX=1;exitY=0.5;exitDx=0;exitDy=0;" edge="1" parent="1" source="RMmXxPSA-yJP6LR7eLPe-3" target="RMmXxPSA-yJP6LR7eLPe-4">
          <mxGeometry relative="1" as="geometry" />
        </mxCell>
        <mxCell id="RMmXxPSA-yJP6LR7eLPe-25" style="edgeStyle=orthogonalEdgeStyle;rounded=0;orthogonalLoop=1;jettySize=auto;html=1;exitX=0;exitY=0.75;exitDx=0;exitDy=0;entryX=1;entryY=0.75;entryDx=0;entryDy=0;" edge="1" parent="1" source="RMmXxPSA-yJP6LR7eLPe-3" target="RMmXxPSA-yJP6LR7eLPe-1">
          <mxGeometry relative="1" as="geometry" />
        </mxCell>
        <mxCell id="RMmXxPSA-yJP6LR7eLPe-26" value="return data" style="edgeLabel;html=1;align=center;verticalAlign=middle;resizable=0;points=[];" vertex="1" connectable="0" parent="RMmXxPSA-yJP6LR7eLPe-25">
          <mxGeometry x="0.235" relative="1" as="geometry">
            <mxPoint x="19" y="15" as="offset" />
          </mxGeometry>
        </mxCell>
        <mxCell id="RMmXxPSA-yJP6LR7eLPe-3" value="Controller" style="rounded=0;whiteSpace=wrap;html=1;" vertex="1" parent="1">
          <mxGeometry x="330" y="150" width="120" height="60" as="geometry" />
        </mxCell>
        <mxCell id="RMmXxPSA-yJP6LR7eLPe-15" style="edgeStyle=orthogonalEdgeStyle;rounded=0;orthogonalLoop=1;jettySize=auto;html=1;exitX=1;exitY=0.5;exitDx=0;exitDy=0;entryX=0;entryY=0.5;entryDx=0;entryDy=0;" edge="1" parent="1" source="RMmXxPSA-yJP6LR7eLPe-4" target="RMmXxPSA-yJP6LR7eLPe-5">
          <mxGeometry relative="1" as="geometry" />
        </mxCell>
        <mxCell id="RMmXxPSA-yJP6LR7eLPe-24" style="edgeStyle=orthogonalEdgeStyle;rounded=0;orthogonalLoop=1;jettySize=auto;html=1;exitX=0;exitY=0.75;exitDx=0;exitDy=0;entryX=1;entryY=0.75;entryDx=0;entryDy=0;" edge="1" parent="1" source="RMmXxPSA-yJP6LR7eLPe-4" target="RMmXxPSA-yJP6LR7eLPe-3">
          <mxGeometry relative="1" as="geometry" />
        </mxCell>
        <mxCell id="RMmXxPSA-yJP6LR7eLPe-4" value="Service" style="rounded=0;whiteSpace=wrap;html=1;" vertex="1" parent="1">
          <mxGeometry x="470" y="150" width="120" height="60" as="geometry" />
        </mxCell>
        <mxCell id="RMmXxPSA-yJP6LR7eLPe-23" style="edgeStyle=orthogonalEdgeStyle;rounded=0;orthogonalLoop=1;jettySize=auto;html=1;exitX=0;exitY=0.75;exitDx=0;exitDy=0;entryX=1;entryY=0.75;entryDx=0;entryDy=0;" edge="1" parent="1" source="RMmXxPSA-yJP6LR7eLPe-5" target="RMmXxPSA-yJP6LR7eLPe-4">
          <mxGeometry relative="1" as="geometry" />
        </mxCell>
        <mxCell id="RMmXxPSA-yJP6LR7eLPe-5" value="Repository" style="rounded=0;whiteSpace=wrap;html=1;" vertex="1" parent="1">
          <mxGeometry x="630" y="150" width="120" height="60" as="geometry" />
        </mxCell>
        <mxCell id="RMmXxPSA-yJP6LR7eLPe-6" value="MYSQL DB" style="shape=cylinder3;whiteSpace=wrap;html=1;boundedLbl=1;backgroundOutline=1;size=15;" vertex="1" parent="1">
          <mxGeometry x="750" y="248" width="60" height="80" as="geometry" />
        </mxCell>
        <mxCell id="RMmXxPSA-yJP6LR7eLPe-18" value="" style="endArrow=classic;html=1;rounded=0;exitX=0;exitY=0.588;exitDx=0;exitDy=0;exitPerimeter=0;entryX=0.25;entryY=1;entryDx=0;entryDy=0;" edge="1" parent="1" source="RMmXxPSA-yJP6LR7eLPe-6" target="RMmXxPSA-yJP6LR7eLPe-5">
          <mxGeometry width="50" height="50" relative="1" as="geometry">
            <mxPoint x="540" y="340" as="sourcePoint" />
            <mxPoint x="610" y="220" as="targetPoint" />
            <Array as="points">
              <mxPoint x="660" y="295" />
            </Array>
          </mxGeometry>
        </mxCell>
        <mxCell id="RMmXxPSA-yJP6LR7eLPe-20" value="return back data" style="text;html=1;align=center;verticalAlign=middle;resizable=0;points=[];autosize=1;strokeColor=none;fillColor=none;" vertex="1" parent="1">
          <mxGeometry x="630" y="298" width="110" height="30" as="geometry" />
        </mxCell>
        <mxCell id="RMmXxPSA-yJP6LR7eLPe-21" style="edgeStyle=orthogonalEdgeStyle;rounded=0;orthogonalLoop=1;jettySize=auto;html=1;exitX=1;exitY=0.5;exitDx=0;exitDy=0;entryX=0.5;entryY=0;entryDx=0;entryDy=0;entryPerimeter=0;" edge="1" parent="1" source="RMmXxPSA-yJP6LR7eLPe-5" target="RMmXxPSA-yJP6LR7eLPe-6">
          <mxGeometry relative="1" as="geometry" />
        </mxCell>
        <mxCell id="RMmXxPSA-yJP6LR7eLPe-22" value="Query" style="text;html=1;align=center;verticalAlign=middle;resizable=0;points=[];autosize=1;strokeColor=none;fillColor=none;" vertex="1" parent="1">
          <mxGeometry x="770" y="198" width="60" height="30" as="geometry" />
        </mxCell>
      </root>
    </mxGraphModel>
  </diagram>
</mxfile>
